# Blender 3.6.3
# www.blender.org
mtllib raymanLeftHand.mtl
o R2_Lhand_rayman2
v -0.561129 1.077140 0.372158
v -0.001689 1.223711 0.572758
v 0.158275 1.647959 -0.312609
v -0.406817 1.374814 -0.343229
v -0.494232 0.625388 -0.070890
v -0.578493 0.552516 1.084026
v -0.575481 0.520059 0.390144
v -0.086514 1.361591 -1.198271
v 0.316504 1.135101 -1.428925
v 0.607734 1.033912 -0.371419
v 0.491873 0.767756 0.650658
v -0.190169 0.243762 1.115994
v 0.840037 0.123428 0.405775
v 0.093825 0.194120 0.526650
v -0.206561 0.209819 0.416174
v -0.359258 -0.245511 0.915055
v 0.285641 -0.045606 0.538022
v -0.221104 0.414456 -0.393553
v -0.701410 -0.121641 0.576132
v 0.036969 -0.134003 0.119170
v -0.414020 1.058370 -0.670258
v -0.609429 -0.256706 1.442326
v -1.028189 0.054926 1.410590
v -0.977307 0.271514 0.863853
v -0.974351 -0.291486 1.024377
v -0.486925 0.658484 -0.955350
v -0.161948 0.710940 -1.531807
v -0.145633 -0.034165 -1.103322
v 0.190071 -0.003671 -1.463526
v 0.003433 -0.261912 -0.482766
v 0.514206 -0.077520 -1.287073
v 0.796192 -0.173037 -0.783140
v -0.209036 -0.269715 -1.290061
v 0.061895 -0.508024 -1.427537
v -0.217721 -0.367132 -0.894906
v -0.792970 -0.265560 -1.091095
v -0.600891 -0.490683 -1.523049
v 0.040095 -0.349491 -0.769954
v -0.649318 -0.656489 -0.792810
v -0.933987 -0.737440 -1.242853
v 0.034627 -0.692533 -0.863735
v -0.623118 -1.060206 -1.023867
v -0.597284 -0.906793 -1.504790
v 0.173552 -0.778172 -1.193140
v 0.881285 -0.073691 -0.152521
v 0.179930 -0.798899 -0.750206
v -0.107706 -0.566857 -0.618059
v 0.238356 -0.345348 -0.153513
v -0.096121 -0.546922 -0.228485
v 0.069332 -0.472610 0.436924
v 0.443389 -0.565201 0.619002
v 0.135833 -0.584574 0.018475
v 0.520110 -0.745817 -0.050334
v 0.200016 -0.896080 -0.098518
v -0.527726 -0.883133 0.267340
v -0.148946 -1.182717 -0.063924
v -0.227138 -0.935250 0.769600
v 0.724953 -0.783445 0.349332
v 0.134134 -1.320711 0.721240
v -0.383668 -1.402449 0.445126
v 0.123661 -1.452798 0.222054
v 0.393093 -1.025806 -0.405181
v -0.544906 -1.385334 -0.145838
v -0.647974 -0.985942 -0.021285
v -0.496891 -1.443002 -0.711506
v -0.900546 -1.237392 -0.453032
v -0.575505 -0.999813 -0.895055
v -0.837162 -0.700713 -0.490812
vn -0.8390 0.5200 0.1602
vn 0.0813 0.7168 0.6925
vn 0.2242 0.9686 0.1070
vn -0.9114 0.3765 -0.1663
vn -0.8950 -0.3255 -0.3051
vn -0.3573 0.6753 0.6452
vn -0.8860 -0.0363 -0.4622
vn -0.5785 0.6525 -0.4895
vn 0.5931 0.3970 -0.7005
vn 0.9231 0.3840 -0.0227
vn 0.6202 0.2248 0.7515
vn 0.6600 -0.2282 0.7158
vn 0.7948 0.0769 0.6020
vn -0.2761 -0.8278 0.4884
vn -0.0457 -0.9064 -0.4199
vn 0.5263 -0.8396 -0.1342
vn -0.3340 -0.0559 0.9409
vn -0.9003 -0.4334 0.0397
vn -0.3449 -0.5320 -0.7733
vn -0.9469 -0.2874 0.1441
vn -0.9925 0.1215 -0.0142
vn 0.2609 -0.4250 0.8668
vn -0.7738 0.1661 0.6113
vn -0.9078 0.3177 -0.2739
vn -0.6225 -0.7715 -0.1315
vn -0.9878 -0.0384 -0.1512
vn -0.5651 0.0267 -0.8246
vn -0.9915 -0.0960 -0.0878
vn -0.1197 0.0097 -0.9928
vn -0.9869 -0.0884 0.1348
vn 0.6580 -0.1948 -0.7274
vn 0.9023 -0.3246 -0.2837
vn -0.4327 0.7206 -0.5418
vn 0.2426 -0.0873 -0.9662
vn -0.3771 0.4821 0.7908
vn -0.5397 0.8279 0.1525
vn -0.3016 0.4175 -0.8572
vn -0.9800 -0.0829 0.1808
vn -0.3970 -0.0082 0.9178
vn -0.9725 -0.1841 -0.1428
vn 0.1376 -0.4728 0.8704
vn -0.1754 -0.9243 0.3390
vn -0.1080 -0.5877 -0.8018
vn 0.5693 -0.7675 -0.2948
vn 0.9753 -0.2203 0.0144
vn 0.1457 -0.2264 -0.9631
vn -0.5875 0.5864 -0.5577
vn -0.9633 -0.2388 0.1223
vn -0.4574 0.6525 0.6041
vn -0.7499 0.4900 0.4444
vn 0.1870 0.1218 0.9748
vn -0.6560 0.1328 -0.7430
vn 0.2886 -0.3933 -0.8729
vn 0.1732 -0.1670 0.9706
vn -0.8966 0.3945 -0.2012
vn -0.3178 -0.2976 -0.9002
vn -0.4542 0.2199 0.8633
vn 0.8850 -0.4241 0.1921
vn 0.3038 -0.5622 0.7692
vn -0.6368 -0.7542 0.1604
vn 0.3699 -0.8727 -0.3187
vn 0.6757 -0.7369 -0.0190
vn -0.0477 -0.8047 0.5917
vn -0.4449 0.1510 0.8828
vn 0.0227 -0.8313 -0.5554
vn -0.9191 -0.3925 -0.0339
vn -0.3534 0.1388 -0.9251
vn -0.6914 0.7188 -0.0732
vt 0.146100 0.787300
vt 0.134700 0.788000
vt 0.182400 0.859800
vt 0.186100 0.841300
vt 0.178700 0.752800
vt 0.111500 0.703900
vt 0.150200 0.726000
vt 0.240100 0.858200
vt 0.258300 0.833900
vt 0.196300 0.786400
vt 0.138100 0.727800
vt 0.114800 0.667600
vt 0.164400 0.666500
vt 0.152100 0.680100
vt 0.153700 0.689500
vt 0.130300 0.623900
vt 0.159100 0.653600
vt 0.203100 0.732800
vt 0.146400 0.650700
vt 0.182900 0.659500
vt 0.211200 0.823400
vt 0.100700 0.610200
vt 0.096000 0.647800
vt 0.125400 0.688200
vt 0.123100 0.620500
vt 0.238400 0.784000
vt 0.269800 0.798200
vt 0.258900 0.703300
vt 0.277000 0.718500
vt 0.223700 0.661800
vt 0.269700 0.705300
vt 0.242300 0.679100
vt 0.272500 0.682400
vt 0.282400 0.664000
vt 0.255000 0.664300
vt 0.261600 0.688700
vt 0.287600 0.675900
vt 0.242100 0.666300
vt 0.252000 0.639800
vt 0.275300 0.647100
vt 0.256400 0.630000
vt 0.270000 0.606900
vt 0.293200 0.630400
vt 0.275100 0.627800
vt 0.200300 0.660300
vt 0.245100 0.600400
vt 0.234300 0.625400
vt 0.202500 0.640600
vt 0.215000 0.618300
vt 0.170500 0.603100
vt 0.163200 0.586000
vt 0.193000 0.602700
vt 0.199900 0.584800
vt 0.211600 0.580800
vt 0.183200 0.571300
vt 0.206100 0.544100
vt 0.157600 0.548200
vt 0.179400 0.573400
vt 0.164500 0.526000
vt 0.181600 0.529200
vt 0.196000 0.523400
vt 0.230400 0.570200
vt 0.220800 0.534500
vt 0.207600 0.578100
vt 0.249900 0.553900
vt 0.235200 0.566400
vt 0.255500 0.595800
vt 0.228800 0.619700
s 1
usemtl rayman2
f 1/1/1 2/2/2 3/3/3
f 1/1/1 4/4/4 5/5/5
f 1/1/1 6/6/6 2/2/2
f 1/1/1 7/7/7 6/6/6
f 3/3/3 4/4/4 1/1/1
f 3/3/3 8/8/8 4/4/4
f 3/3/3 9/9/9 8/8/8
f 3/3/3 10/10/10 9/9/9
f 2/2/2 11/11/11 3/3/3
f 2/2/2 12/12/12 11/11/11
f 2/2/2 6/6/6 12/12/12
f 11/11/11 10/10/10 3/3/3
f 11/11/11 13/13/13 10/10/10
f 12/12/12 14/14/14 11/11/11
f 12/12/12 15/15/15 14/14/14
f 12/12/12 16/16/16 15/15/15
f 14/14/14 17/17/17 11/11/11
f 15/15/15 18/18/18 14/14/14
f 15/15/15 5/5/5 18/18/18
f 15/15/15 7/7/7 5/5/5
f 15/15/15 19/19/19 7/7/7
f 18/18/18 20/20/20 14/14/14
f 5/5/5 4/4/4 18/18/18
f 5/5/5 7/7/7 1/1/1
f 4/4/4 21/21/21 18/18/18
f 6/6/6 22/22/22 12/12/12
f 6/6/6 23/23/23 22/22/22
f 7/7/7 24/24/24 6/6/6
f 7/7/7 19/19/19 24/24/24
f 22/22/22 16/16/16 12/12/12
f 22/22/22 25/25/25 16/16/16
f 16/16/16 19/19/19 15/15/15
f 24/24/24 23/23/23 6/6/6
f 24/24/24 25/25/25 23/23/23
f 24/24/24 19/19/19 25/25/25
f 23/23/23 25/25/25 22/22/22
f 25/25/25 19/19/19 16/16/16
f 8/8/8 21/21/21 4/4/4
f 8/8/8 26/26/26 21/21/21
f 8/8/8 27/27/27 26/26/26
f 8/8/8 9/9/9 27/27/27
f 21/21/21 26/26/26 18/18/18
f 26/26/26 28/28/28 18/18/18
f 27/27/27 28/28/28 26/26/26
f 27/27/27 29/29/29 28/28/28
f 28/28/28 30/30/30 18/18/18
f 9/9/9 29/29/29 27/27/27
f 9/9/9 31/31/31 29/29/29
f 9/9/9 32/32/32 31/31/31
f 29/29/29 33/33/33 28/28/28
f 29/29/29 34/34/34 33/33/33
f 33/33/33 35/35/35 28/28/28
f 33/33/33 36/36/36 35/35/35
f 33/33/33 37/37/37 36/36/36
f 35/35/35 38/38/38 28/28/28
f 36/36/36 39/39/39 35/35/35
f 36/36/36 40/40/40 39/39/39
f 36/36/36 37/37/37 40/40/40
f 39/39/39 41/41/41 35/35/35
f 40/40/40 42/42/42 39/39/39
f 40/40/40 43/43/43 42/42/42
f 40/40/40 37/37/37 43/43/43
f 42/42/42 41/41/41 39/39/39
f 43/43/43 44/44/44 42/42/42
f 43/43/43 34/34/34 44/44/44
f 43/43/43 37/37/37 34/34/34
f 44/44/44 34/34/34 31/31/31
f 44/44/44 41/41/41 42/42/42
f 31/31/31 34/34/34 29/29/29
f 31/31/31 32/32/32 44/44/44
f 34/34/34 37/37/37 33/33/33
f 10/10/10 32/32/32 9/9/9
f 10/10/10 45/45/45 32/32/32
f 32/32/32 41/41/41 44/44/44
f 32/32/32 38/38/38 41/41/41
f 32/32/32 46/46/46 38/38/38
f 41/41/41 38/38/38 35/35/35
f 38/38/38 30/30/30 28/28/28
f 38/38/38 47/47/47 30/30/30
f 30/30/30 20/20/20 18/18/18
f 30/30/30 48/48/48 20/20/20
f 30/30/30 49/49/49 48/48/48
f 30/30/30 47/47/47 49/49/49
f 20/20/20 17/17/17 14/14/14
f 20/20/20 50/50/50 17/17/17
f 17/17/17 13/13/13 11/11/11
f 17/17/17 51/51/51 13/13/13
f 13/13/13 45/45/45 10/10/10
f 48/48/48 52/52/52 20/20/20
f 48/48/48 53/53/53 52/52/52
f 48/48/48 45/45/45 53/53/53
f 48/48/48 54/54/54 45/45/45
f 48/48/48 49/49/49 54/54/54
f 52/52/52 50/50/50 20/20/20
f 52/52/52 55/55/55 50/50/50
f 52/52/52 56/56/56 55/55/55
f 52/52/52 53/53/53 56/56/56
f 50/50/50 51/51/51 17/17/17
f 50/50/50 57/57/57 51/51/51
f 50/50/50 55/55/55 57/57/57
f 51/51/51 58/58/58 13/13/13
f 51/51/51 59/59/59 58/58/58
f 57/57/57 59/59/59 51/51/51
f 57/57/57 60/60/60 59/59/59
f 55/55/55 60/60/60 57/57/57
f 55/55/55 56/56/56 60/60/60
f 58/58/58 45/45/45 13/13/13
f 58/58/58 61/61/61 53/53/53
f 59/59/59 61/61/61 58/58/58
f 60/60/60 61/61/61 59/59/59
f 56/56/56 61/61/61 60/60/60
f 53/53/53 45/45/45 58/58/58
f 53/53/53 61/61/61 56/56/56
f 45/45/45 62/62/62 32/32/32
f 54/54/54 62/62/62 45/45/45
f 54/54/54 63/63/63 62/62/62
f 54/54/54 64/64/64 63/63/63
f 54/54/54 49/49/49 64/64/64
f 62/62/62 46/46/46 32/32/32
f 63/63/63 65/65/65 62/62/62
f 63/63/63 66/66/66 65/65/65
f 63/63/63 64/64/64 66/66/66
f 65/65/65 46/46/46 62/62/62
f 65/65/65 67/67/67 46/46/46
f 66/66/66 67/67/67 65/65/65
f 66/66/66 68/68/68 67/67/67
f 66/66/66 64/64/64 68/68/68
f 46/46/46 47/47/47 38/38/38
f 67/67/67 47/47/47 46/46/46
f 68/68/68 47/47/47 67/67/67
f 64/64/64 49/49/49 68/68/68
f 49/49/49 47/47/47 68/68/68
