# Blender 3.6.3
# www.blender.org
mtllib raymanTorso.mtl
o R2_body_rayman2
v 0.205383 2.219018 -1.458445
v 0.478662 2.718898 -0.239586
v 0.041633 2.737145 -0.420617
v 1.087950 1.975183 -0.726016
v 0.501281 0.939695 -1.244596
v -0.938671 0.301986 -0.829015
v -1.498091 0.074632 0.009187
v -0.685562 1.598502 -0.403186
v -1.071895 -0.886323 -1.316437
v 0.053772 1.678674 -0.679023
v 0.062197 0.415631 -1.109093
v -1.019645 -0.182742 0.959682
v 0.039256 -0.325504 1.508775
v -0.843804 1.307343 1.083325
v -0.925608 -1.646042 0.487267
v 0.047214 -1.770553 1.071985
v 1.065742 0.305855 -0.802066
v 1.216417 -0.883260 -1.286149
v 0.071783 -0.760341 -1.777685
v 0.793958 1.601522 -0.381618
v 1.098773 -0.178463 0.987754
v 1.601865 0.080986 0.049995
v 0.913381 1.311123 1.107785
v 1.022606 -1.644184 0.513901
v 1.582269 -1.239257 -0.486443
v 0.034311 1.229706 1.529268
v 1.242528 1.478762 0.335968
v -1.460061 -1.263114 -0.504570
v -1.152370 1.473690 0.302538
v 0.065090 -1.684779 -0.727225
v 0.048269 2.682508 -0.445907
v -0.374366 2.701258 -0.242264
v -0.386085 2.544204 0.804477
v 0.468631 2.703628 -0.231494
v 0.457231 2.546151 0.816625
v 0.035298 2.509670 1.007310
v -0.554975 2.629733 0.326450
v 0.637813 2.632474 0.342386
v 0.040505 2.807725 0.330119
vn -0.5481 -0.7235 0.4196
vn -0.6418 -0.0203 0.7666
vn -0.5211 0.3718 -0.7683
vn -0.9813 0.1705 -0.0898
vn -0.6295 0.3024 -0.7158
vn -0.6610 -0.1890 -0.7262
vn 0.0110 0.3112 -0.9503
vn 0.0100 0.4102 -0.9119
vn -0.7265 -0.1535 0.6698
vn -0.0107 -0.1080 0.9941
vn -0.6603 0.1921 0.7260
vn -0.5700 -0.7637 0.3031
vn -0.0066 -0.6917 0.7222
vn 0.5385 0.3745 -0.7548
vn 0.6798 -0.1847 -0.7098
vn 0.0114 0.0531 -0.9985
vn 0.6460 0.3062 -0.6993
vn 0.7120 -0.1515 0.6857
vn 0.9825 0.1747 -0.0644
vn 0.6412 0.1950 0.7422
vn 0.5704 -0.7596 0.3124
vn 0.8585 -0.5095 -0.0579
vn -0.0119 0.1886 0.9820
vn 0.9267 0.3753 0.0192
vn -0.8537 -0.5153 -0.0756
vn -0.9289 0.3703 -0.0048
vn 0.0077 -0.9263 -0.3767
vn 0.0078 0.5972 -0.8021
vn -0.5786 0.7048 -0.4105
vn -0.5422 0.6658 0.5125
vn 0.5844 0.7079 -0.3967
vn 0.5254 0.6689 0.5259
vn -0.0112 0.6018 0.7986
vn -0.6293 0.7673 0.1235
vn 0.6218 0.7709 0.1380
vn -0.0045 0.9899 0.1415
vn 0.2072 0.8880 -0.4106
vt 0.895300 0.661200
vt 0.969900 0.822900
vt 0.840700 0.829400
vt 0.916900 0.990300
vt 0.374000 0.523100
vt 0.430200 0.523200
vt 0.376200 0.414100
vt 0.364800 0.640800
vt 0.315400 0.414600
vt 0.314900 0.525700
vt 0.495400 0.521100
vt 0.558100 0.521300
vt 0.497900 0.415200
vt 0.498400 0.640300
vt 0.556800 0.642500
vt 0.746900 0.524800
vt 0.756200 0.642000
vt 0.825100 0.643200
vt 0.824300 0.522600
vt 0.826000 0.404900
vt 0.749500 0.405500
vt 0.617400 0.523200
vt 0.682000 0.520900
vt 0.621600 0.412300
vt 0.618800 0.643200
vt 0.687400 0.642200
vt 0.557500 0.414700
vt 0.315500 0.639900
vt 0.685800 0.410100
vt 0.423900 0.640900
vt 0.436600 0.413900
vt 0.557300 0.654900
vt 0.557200 0.653800
vt 0.557900 0.655100
vt 0.556600 0.654800
vt 0.556800 0.654400
vt 0.557600 0.654900
vt 0.557800 0.653800
vt 0.558000 0.654700
vt 0.313600 0.314300
vt 0.371500 0.313800
vt 0.494100 0.313500
vt 0.751300 0.313900
vt 0.626000 0.313000
vt 0.560200 0.313800
vt 0.437000 0.314100
vt 0.827400 0.314200
vt 0.685200 0.312700
vt 0.509000 0.336000
vt 0.933300 0.660200
vt 0.895200 0.659700
vt 0.969000 0.823200
s 1
usemtl rayman2
f 2/1/1 1/2/1 4/3/1
f 5/4/2 4/3/2 1/2/2
f 6/5/3 7/6/4 8/7/5
f 6/5/3 9/8/6 7/6/4
f 6/5/3 10/9/7 11/10/8
f 12/11/9 13/12/10 14/13/11
f 12/11/9 15/14/12 16/15/13
f 12/11/9 16/15/13 13/12/10
f 17/16/14 18/17/15 19/18/16
f 17/16/14 19/18/16 11/19/8
f 17/16/14 10/20/7 20/21/17
f 21/22/18 22/23/19 23/24/20
f 21/22/18 24/25/21 25/26/22
f 21/22/18 25/26/22 22/23/19
f 13/12/10 16/15/13 21/22/18
f 13/12/10 26/27/23 14/13/11
f 11/10/8 19/28/16 6/5/3
f 11/19/8 10/20/7 17/16/14
f 22/23/19 18/17/15 17/16/14
f 22/23/19 25/26/22 18/17/15
f 22/23/19 27/29/24 23/24/20
f 7/6/4 28/30/25 12/11/9
f 7/6/4 29/31/26 8/7/5
f 9/8/6 28/30/25 7/6/4
f 9/8/6 30/32/27 28/30/25
f 15/14/12 30/33/27 16/15/13
f 18/17/15 30/34/27 19/18/16
f 24/25/21 30/35/27 25/26/22
f 28/30/25 15/14/12 12/11/9
f 28/30/25 30/36/27 15/14/12
f 19/28/16 9/8/6 6/5/3
f 19/28/16 30/37/27 9/8/6
f 16/15/13 24/25/21 21/22/18
f 16/15/13 30/38/27 24/25/21
f 25/26/22 30/39/27 18/17/15
f 8/7/5 10/9/7 6/5/3
f 8/7/5 31/40/28 10/9/7
f 8/7/5 32/41/29 31/40/28
f 14/13/11 7/6/4 12/11/9
f 14/13/11 29/31/26 7/6/4
f 14/13/11 33/42/30 29/31/26
f 20/21/17 22/23/19 17/16/14
f 20/21/17 27/29/24 22/23/19
f 20/21/17 34/43/31 27/29/24
f 23/24/20 13/12/10 21/22/18
f 23/24/20 26/27/23 13/12/10
f 23/24/20 35/44/32 36/45/33
f 23/24/20 36/45/33 26/27/23
f 29/31/26 32/41/29 8/7/5
f 29/31/26 33/42/30 37/46/34
f 10/20/7 31/47/28 20/21/17
f 26/27/23 36/45/33 14/13/11
f 27/29/24 35/44/32 23/24/20
f 27/29/24 34/43/31 38/48/35
f 35/44/32 39/49/36 36/45/33
f 38/48/35 35/44/32 27/29/24
f 38/48/35 39/49/36 35/44/32
f 34/43/31 39/49/36 38/48/35
f 31/47/28 34/43/31 20/21/17
f 31/47/28 39/49/36 34/43/31
f 32/41/29 39/49/36 31/40/28
f 37/46/34 32/41/29 29/31/26
f 37/46/34 39/49/36 32/41/29
f 33/42/30 39/49/36 37/46/34
f 36/45/33 33/42/30 14/13/11
f 36/45/33 39/49/36 33/42/30
f 3/50/37 2/51/37 1/52/37
