# Blender 3.6.3
# www.blender.org
mtllib raymanRightFoot.mtl
o R2_Lfoot_rayman2
v -1.504452 0.027454 -0.457327
v 0.797504 0.027603 -1.833646
v -1.515900 0.027107 0.541613
v -0.990675 0.782830 -1.368824
v -1.056104 0.027175 -1.620382
v -1.486894 0.758111 0.354439
v -1.109803 0.027418 1.707832
v 1.373324 0.027146 1.540099
v 0.227174 0.025907 2.458920
v -1.021124 0.931570 1.622702
v 1.390662 0.760157 0.105114
v 1.522967 0.027292 0.183894
v -0.273587 0.025872 -2.100948
v 0.671350 0.783007 -1.585216
v 1.179493 0.930942 1.533547
v 0.160491 1.210279 2.257937
v -0.239747 0.975789 -1.729406
v -0.649410 1.846713 1.413907
v 0.421318 1.535321 -1.104108
v 0.825210 1.846643 1.220724
v 0.106831 1.769268 1.714359
v -0.749986 1.535272 -0.950615
v 0.913526 1.715386 0.138559
v -0.969111 1.716030 0.405409
v -0.077252 1.958315 -0.150092
v 0.020986 2.118490 0.865543
vn -0.8725 -0.4493 -0.1922
vn 0.4905 -0.7804 -0.3877
vn -0.5607 -0.8230 0.0911
vn -0.7763 0.3775 -0.5049
vn -0.6354 -0.3904 -0.6663
vn -0.9499 0.3077 0.0542
vn -0.6140 -0.6836 0.3946
vn 0.6993 -0.4769 0.5325
vn -0.1394 -0.2268 0.9639
vn -0.7057 0.2501 0.6629
vn 0.9217 0.3447 -0.1778
vn 0.7587 -0.6508 -0.0281
vn -0.0180 0.0073 -0.9998
vn 0.5237 0.4436 -0.7273
vn 0.8754 0.2965 0.3818
vn 0.1647 0.4390 0.8833
vn -0.1904 0.5209 -0.8321
vn -0.5454 0.7116 0.4429
vn 0.3798 0.7636 -0.5221
vn 0.6191 0.7173 0.3197
vn 0.0658 0.8317 0.5514
vn -0.5006 0.7462 -0.4389
vn 0.5750 0.7956 -0.1909
vn -0.5994 0.7981 -0.0611
vn -0.0342 0.9696 -0.2422
vn 0.0042 0.9978 0.0663
vt 0.974800 0.394900
vt 0.864800 0.411800
vt 0.981500 0.532000
vt 0.554200 0.665400
vt 0.403600 0.773600
vt 0.446000 0.661500
vt 0.585000 0.774900
vt 0.948400 0.635300
vt 0.844900 0.566100
vt 0.889200 0.651000
vt 0.706600 0.663400
vt 0.823200 0.663700
vt 0.731300 0.772100
vt 0.638000 0.662900
vt 0.445500 0.661000
vt 0.584800 0.774600
vt 0.554500 0.666900
vt 0.316800 0.661400
vt 0.404500 0.771800
vt 0.848300 0.477100
vt 0.706500 0.662500
vt 0.732400 0.770700
vt 0.821600 0.840800
vt 0.822100 0.663500
vt 0.938500 0.329400
vt 0.350600 0.818800
vt 0.316800 0.661700
vt 0.821100 0.841600
vt 0.688100 0.908300
vt 0.350600 0.817900
vt 0.414500 0.893400
vt 0.688700 0.908300
vt 0.757500 0.946300
vt 0.414900 0.893900
vt 0.597500 0.908600
vt 0.597100 0.908700
vt 0.897600 0.341400
vt 0.414200 0.893900
vt 0.413100 0.892500
vt 0.351000 0.819400
vt 0.551600 0.979100
vt 0.617400 0.994100
vt 0.552200 0.979900
vt 0.756300 0.946900
vt 0.617100 0.993700
vt 0.551300 0.980000
s 1
usemtl rayman2
f 1/1/1 2/2/2 3/3/3
f 1/4/1 4/5/4 5/6/5
f 1/4/1 6/7/6 4/5/4
f 7/8/7 8/9/8 9/10/9
f 7/11/7 9/12/9 10/13/10
f 7/11/7 6/7/6 3/14/3
f 2/15/2 11/16/11 12/17/12
f 2/15/2 13/18/13 14/19/14
f 8/9/8 7/8/7 12/20/12
f 8/21/8 12/17/12 15/22/15
f 8/21/8 16/23/16 9/24/9
f 3/3/3 12/20/12 7/8/7
f 3/14/3 6/7/6 1/4/1
f 5/25/5 2/2/2 1/1/1
f 5/6/5 17/26/17 13/27/13
f 10/13/10 16/28/16 18/29/18
f 10/13/10 6/7/6 7/11/7
f 12/20/12 3/3/3 2/2/2
f 14/19/14 11/16/11 2/15/2
f 14/19/14 17/30/17 19/31/19
f 14/19/14 13/18/13 17/30/17
f 15/22/15 16/23/16 8/21/8
f 15/22/15 11/16/11 20/32/20
f 16/28/16 10/13/10 9/12/9
f 16/28/16 21/33/21 18/29/18
f 4/5/4 17/26/17 5/6/5
f 4/5/4 22/34/22 17/26/17
f 11/16/11 15/22/15 12/17/12
f 11/16/11 23/35/23 20/32/20
f 6/7/6 24/36/24 22/34/22
f 13/37/13 2/2/2 5/25/5
f 22/34/22 4/5/4 6/7/6
f 22/38/22 19/39/19 17/40/17
f 22/38/22 25/41/25 19/39/19
f 18/29/18 6/7/6 10/13/10
f 18/29/18 24/36/24 6/7/6
f 18/29/18 26/42/26 24/36/24
f 19/31/19 11/16/11 14/19/14
f 19/31/19 23/35/23 11/16/11
f 19/31/19 25/43/25 23/35/23
f 20/32/20 16/23/16 15/22/15
f 20/32/20 21/44/21 16/23/16
f 20/32/20 26/45/26 21/44/21
f 24/36/24 25/46/25 22/34/22
f 24/36/24 26/42/26 25/46/25
f 21/33/21 26/42/26 18/29/18
f 23/35/23 26/45/26 20/32/20
f 25/43/25 26/45/26 23/35/23
